Coordinates
version=1
nRows=14
nColumns=24
inDegrees=yes

Units are S.I. units (second, meters, Newtons, ...)
Angles are in degrees.

endheader
time	pelvis_tilt	pelvis_list	pelvis_rotation	pelvis_tx	pelvis_ty	pelvis_tz	hip_flexion_r	hip_adduction_r	hip_rotation_r	knee_angle_r	ankle_angle_r	subtalar_angle_r	mtp_angle_r	hip_flexion_l	hip_adduction_l	hip_rotation_l	knee_angle_l	ankle_angle_l	subtalar_angle_l	mtp_angle_l	lumbar_extension	lumbar_bending	lumbar_rotation
      3.69000000	     -5.74759235	      9.30990227	      0.64761595	     -0.62140368	     -0.02206391	     -0.21057239	     29.92818226	    -10.95640388	     -2.97407417	    -70.59646565	    -12.57327050	      3.76024222	     22.07979928	     12.48571864	     18.17991963	     -0.96706865	    -17.43222763	      8.02700929	     -1.56893759	    -13.83794149	      7.21443366	    -11.40349656	     -1.64806863
      3.69500000	     -5.63144062	      9.12815942	      0.72743004	     -0.61550612	     -0.02137377	     -0.21073736	     30.55557251	    -10.75192023	     -3.23108903	    -69.98519919	    -12.01875668	      3.33736698	     21.76859299	     11.59242593	     18.02034099	     -0.66601763	    -16.98849077	      8.26247293	     -1.40044097	    -13.89063359	      6.99965820	    -11.24012140	     -1.89161913
      3.70000000	     -5.52446086	      8.93914915	      0.82018416	     -0.60962457	     -0.02074127	     -0.21091325	     31.16043284	    -10.55325855	     -3.51682715	    -69.29114179	    -11.49082202	      2.92818800	     21.41826614	     10.72093264	     17.84511004	     -0.39541825	    -16.56006300	      8.50789371	     -1.19281771	    -13.89898503	      6.79229672	    -11.07296916	     -2.14503247
      3.70500000	     -5.40882863	      8.74287963	      0.93516492	     -0.60376492	     -0.02013761	     -0.21110606	     31.71520029	    -10.36247817	     -3.83849544	    -68.51102312	    -10.98010258	      2.52774934	     20.97246098	      9.85405244	     17.65692274	     -0.14873505	    -16.15354395	      8.75238868	     -0.95206775	    -13.87890573	      6.56625879	    -10.89959302	     -2.42578222
      3.71000000	     -5.30692536	      8.54333967	      1.05854133	     -0.59791437	     -0.01960215	     -0.21128049	     32.25478556	    -10.17793210	     -4.18258623	    -67.65614985	    -10.47802335	      2.16067514	     20.47584177	      9.01392643	     17.45655656	      0.07802655	    -15.76157223	      9.00265466	     -0.69972342	    -13.83236889	      6.35449388	    -10.72920293	     -2.71202367
      3.71500000	     -5.21375670	      8.34369856	      1.19532115	     -0.59208734	     -0.01912635	     -0.21147693	     32.77086056	    -10.00400188	     -4.54124353	    -66.72367527	     -9.98469914	      1.82414942	     19.93732806	      8.19859994	     17.25382383	      0.29438558	    -15.39026357	      9.24371145	     -0.44520311	    -13.77235217	      6.14518808	    -10.55529267	     -3.00912643
      3.72000000	     -5.10455672	      8.17059606	      1.33911190	     -0.58627599	     -0.01871878	     -0.21165829	     33.24731973	     -9.87071747	     -4.92117349	    -65.74294597	     -9.44952583	      1.52023975	     19.24201423	      7.37201170	     17.07390543	      0.51476220	    -15.02559345	      9.49552598	     -0.18234744	    -13.70173274	      5.91649604	    -10.41162872	     -3.28467390
      3.72500000	     -5.03626481	      7.96746391	      1.49265719	     -0.58046078	     -0.01837382	     -0.21183966	     33.72613069	     -9.70804724	     -5.30893718	    -64.66491352	     -8.95145866	      1.28199130	     18.62361859	      6.60611905	     16.86117996	      0.74039325	    -14.68613177	      9.73323611	      0.03361125	    -13.64550908	      5.73186597	    -10.23883247	     -3.58861862
      3.73000000	     -5.00939076	      7.74432551	      1.65280900	     -0.57466220	     -0.01811071	     -0.21205424	     34.21384172	     -9.53281197	     -5.69768987	    -63.48731116	     -8.53168462	      1.09501069	     18.19886425	      5.90897873	     16.63197530	      0.93594543	    -14.37582713	      9.96622302	      0.18024961	    -13.60588856	      5.59252091	    -10.04584630	     -3.92994559
      3.73500000	     -4.94917499	      7.54089880	      1.82552492	     -0.56890101	     -0.01784808	     -0.21221919	     34.62604702	     -9.37908313	     -6.09694049	    -62.23295088	     -8.07903611	      0.91935749	     17.70335845	      5.18701376	     16.41387651	      1.16686517	    -14.08453938	     10.16608435	      0.34608663	    -13.58641452	      5.40360043	     -9.87831347	     -4.25758181
      3.74000000	     -4.89375880	      7.34891309	      1.99495229	     -0.56316692	     -0.01766978	     -0.21241322	     35.02627496	     -9.24771934	     -6.50232196	    -60.93128974	     -7.60451835	      0.81648032	     17.17665147	      4.47789004	     16.20993913	      1.40033875	    -13.79767240	     10.37197167	      0.48459994	    -13.58751283	      5.21028973	     -9.70793509	     -4.58352516
      3.74500000	     -4.82766814	      7.17488941	      2.16769918	     -0.55740641	     -0.01752985	     -0.21256385	     35.37953945	     -9.13751499	     -6.91320807	    -59.56666602	     -7.10858780	      0.79663150	     16.59009040	      3.76172797	     16.02001127	      1.64036457	    -13.52266653	     10.58826201	      0.59554413	    -13.61929021	      5.02103053	     -9.57570291	     -4.91200098
      3.75000000	     -4.79789118	      6.99972611	      2.33275764	     -0.55169788	     -0.01746708	     -0.21268956	     35.74903433	     -9.01275934	     -7.29235048	    -58.13188565	     -6.62231089	      0.85662107	     16.08881564	      3.10972964	     15.82551545	      1.86924222	    -13.27694043	     10.78644095	      0.68913115	    -13.67444848	      4.85827108	     -9.43462679	     -5.21741161
      3.75500000	     -4.77430027	      6.83804762	      2.48641081	     -0.54599132	     -0.01745333	     -0.21279556	     36.09645802	     -8.89377201	     -7.64947504	    -56.62993915	     -6.15081822	      0.98358632	     15.63914460	      2.47352386	     15.64144121	      2.08539411	    -13.04307110	     10.98266545	      0.77811824	    -13.75160534	      4.70412900	     -9.30673693	     -5.50918691
